<svg xmlns="http://www.w3.org/2000/svg" viewBox="0 0 512 512" role="img" aria-labelledby="title desc">
  <title id="title">Custodes mark</title>
  <desc id="desc">A bronze circular ward with an eye in the center.</desc>
  <defs>
    <linearGradient id="bronze" x1="86" y1="74" x2="426" y2="438" gradientUnits="userSpaceOnUse">
      <stop offset="0" stop-color="#f0c47a"/>
      <stop offset="0.36" stop-color="#b77a3d"/>
      <stop offset="0.72" stop-color="#d7a45d"/>
      <stop offset="1" stop-color="#7a4e29"/>
    </linearGradient>
    <linearGradient id="ember" x1="214" y1="212" x2="300" y2="312" gradientUnits="userSpaceOnUse">
      <stop offset="0" stop-color="#ffd15f"/>
      <stop offset="1" stop-color="#d18a00"/>
    </linearGradient>
    <filter id="rough" x="-20%" y="-20%" width="140%" height="140%">
      <feTurbulence type="fractalNoise" baseFrequency="0.9" numOctaves="2" seed="18"/>
      <feColorMatrix type="saturate" values="0"/>
      <feComponentTransfer>
        <feFuncA type="table" tableValues="0 0.28"/>
      </feComponentTransfer>
      <feBlend mode="multiply" in2="SourceGraphic"/>
    </filter>
    <filter id="shadow" x="-30%" y="-30%" width="160%" height="160%">
      <feDropShadow dx="0" dy="18" stdDeviation="18" flood-color="#000" flood-opacity="0.45"/>
    </filter>
    <g id="divider" stroke="url(#bronze)" stroke-width="8" stroke-linecap="round">
      <path d="M256 43v54"/>
      <path d="M239 64l17 24 17-24"/>
    </g>
    <g id="rune" stroke="url(#bronze)" stroke-width="8" stroke-linecap="round" stroke-linejoin="round">
      <path d="M256 55v42"/>
      <path d="M241 78l15 19 15-19"/>
      <path d="M226 103h60"/>
    </g>
    <g id="tick" stroke="url(#bronze)" stroke-width="7" stroke-linecap="round">
      <path d="M256 118v28"/>
    </g>
  </defs>
  <rect width="512" height="512" rx="26" fill="#101111"/>
  <g filter="url(#shadow)">
    <circle cx="256" cy="256" r="220" fill="#13130f" stroke="url(#bronze)" stroke-width="14"/>
    <circle cx="256" cy="256" r="180" fill="none" stroke="url(#bronze)" stroke-width="8"/>
    <circle cx="256" cy="256" r="132" fill="#101111" stroke="url(#bronze)" stroke-width="7"/>
    <g opacity="0.92">
      <use href="#divider" transform="rotate(0 256 256)"/>
      <use href="#divider" transform="rotate(60 256 256)"/>
      <use href="#divider" transform="rotate(120 256 256)"/>
      <use href="#divider" transform="rotate(180 256 256)"/>
      <use href="#divider" transform="rotate(240 256 256)"/>
      <use href="#divider" transform="rotate(300 256 256)"/>
    </g>
    <g fill="none" opacity="0.95">
      <use href="#rune" transform="rotate(30 256 256)"/>
      <use href="#rune" transform="rotate(90 256 256)"/>
      <use href="#rune" transform="rotate(150 256 256)"/>
      <use href="#rune" transform="rotate(210 256 256)"/>
      <use href="#rune" transform="rotate(270 256 256)"/>
      <use href="#rune" transform="rotate(330 256 256)"/>
    </g>
    <g opacity="0.86">
      <use href="#tick" transform="rotate(0 256 256)"/>
      <use href="#tick" transform="rotate(24 256 256)"/>
      <use href="#tick" transform="rotate(336 256 256)"/>
      <use href="#tick" transform="rotate(156 256 256)"/>
      <use href="#tick" transform="rotate(180 256 256)"/>
      <use href="#tick" transform="rotate(204 256 256)"/>
    </g>
    <path d="M98 256c38-58 93-88 158-88s120 30 158 88c-38 58-93 88-158 88S136 314 98 256z" fill="#101111" stroke="url(#bronze)" stroke-width="11" stroke-linejoin="round"/>
    <path d="M178 256c18-46 44-70 78-70s60 24 78 70c-18 46-44 70-78 70s-60-24-78-70z" fill="#12140f" stroke="url(#bronze)" stroke-width="9"/>
    <circle cx="256" cy="256" r="45" fill="#11120f" stroke="url(#bronze)" stroke-width="9"/>
    <circle cx="256" cy="256" r="21" fill="url(#ember)"/>
    <g stroke="url(#bronze)" stroke-width="7" stroke-linecap="round" fill="none" opacity="0.86">
      <path d="M223 237c0-26 13-45 35-54"/>
      <path d="M289 275c0 26-13 45-35 54"/>
      <path d="M296 216h22"/>
      <path d="M194 296h22"/>
      <circle cx="319" cy="216" r="8" fill="#c28b4d"/>
      <circle cx="194" cy="296" r="8" fill="#c28b4d"/>
    </g>
    <circle cx="256" cy="256" r="220" fill="#b9874b" opacity="0.2" filter="url(#rough)"/>
  </g>
</svg>
